<svg width="14" height="18" viewBox="0 0 14 18" fill="none" xmlns="http://www.w3.org/2000/svg">
<path d="M0 18V2C0 1.45 0.195833 0.979167 0.5875 0.5875C0.979167 0.195833 1.45 0 2 0H12C12.55 0 13.0208 0.195833 13.4125 0.5875C13.8042 0.979167 14 1.45 14 2V18L7 15L0 18Z" fill="#63B150"/>
<path d="M9.5655 5.511L6.6 8.4765L4.9845 6.8655L4.35 7.5L6.6 9.75L10.2 6.15L9.5655 5.511ZM7.5 3C5.016 3 3 5.016 3 7.5C3 9.984 5.016 12 7.5 12C9.984 12 12 9.984 12 7.5C12 5.016 9.984 3 7.5 3ZM7.5 11.1C5.511 11.1 3.9 9.489 3.9 7.5C3.9 5.511 5.511 3.9 7.5 3.9C9.489 3.9 11.1 5.511 11.1 7.5C11.1 9.489 9.489 11.1 7.5 11.1Z" fill="#F5F5F5"/>
</svg>
