<svg width="56" height="56" viewBox="0 0 56 56" fill="none" xmlns="http://www.w3.org/2000/svg">
<rect width="56" height="55.0539" rx="16.3123" fill="#4169E1"/>
<mask id="mask0_5_4349" style="mask-type:luminance" maskUnits="userSpaceOnUse" x="13" y="12" width="31" height="31">
<path d="M17.2457 12.2362H17.1793C15.6608 12.2362 14.8988 12.2362 14.4976 12.2487C14.0704 12.2586 13.733 12.2658 13.4206 12.5763L13.2645 12.7325L13.0975 13.1812V13.8463L20.0827 20.8323L24.0137 20.8422C25.4156 20.8467 25.5341 18.7331 24.1349 18.6326C24.0918 18.629 24.0478 18.6272 24.0029 18.6272H20.9963L16.8096 14.4413C22.418 14.4296 33.3952 14.4539 38.7146 14.4539C38.7882 14.4539 39.8499 14.4898 40.733 15.4546C41.0427 15.7929 41.5175 16.5387 41.5175 17.429L41.4932 23.891C41.5309 25.1143 40.383 26.6472 38.8438 26.7791H36.4834C36.439 26.7788 36.396 26.7634 36.3615 26.7353C36.3271 26.7072 36.3033 26.6682 36.2941 26.6247C36.0158 25.3739 35.3221 24.2541 34.326 23.448C33.3298 22.6419 32.09 22.197 30.8086 22.1857H30.7404C27.7455 22.1857 25.1993 24.5964 25.0494 27.5895C25.0014 28.524 25.1845 29.456 25.5825 30.3029C25.9805 31.1497 26.5812 31.8854 27.3314 32.4448C28.0815 33.0041 28.958 33.3699 29.8833 33.5097C30.8085 33.6496 31.7539 33.5591 32.6359 33.2464L41.9016 42.5148C42.0344 42.6324 42.59 43.0587 43.2559 42.6387C43.4661 42.4963 43.6238 42.2888 43.7046 42.0481C43.8985 41.3301 43.5099 41.0052 43.1311 40.6274L33.5549 31.0503C33.4123 30.9062 33.2251 30.8147 33.0239 30.7905C32.8226 30.7664 32.6191 30.8111 32.4465 30.9174C32.4196 30.9336 32.3568 30.9677 32.3164 30.9892C31.9384 31.18 31.5292 31.3016 31.1084 31.3482C30.5217 31.4112 29.9287 31.3244 29.3847 31.0961C28.8406 30.8677 28.3633 30.5053 27.9974 30.0425C27.6314 29.5797 27.3887 29.0317 27.2919 28.4497C27.1951 27.8676 27.2474 27.2706 27.4439 26.7143C27.6404 26.1579 27.9746 25.6605 28.4155 25.2683C28.8563 24.8762 29.3894 24.6022 29.9648 24.4719C30.5402 24.3416 31.1393 24.3592 31.7061 24.5232C32.2729 24.6872 32.7888 24.9921 33.2058 25.4095C33.5299 25.73 33.7873 26.1115 33.9631 26.5321C34.1388 26.9527 34.2295 27.4039 34.2298 27.8597C34.2266 28.0132 34.2558 28.1657 34.3155 28.3072C34.3752 28.4487 34.464 28.576 34.5763 28.6809C34.7917 28.877 35.0738 28.9836 35.3652 28.9788H38.8411C41.3065 28.9788 43.7657 26.5556 43.7657 24.4151V17.2567C43.7657 13.8822 40.8192 12.4525 39.4514 12.2855C39.2418 12.2565 39.0302 12.2445 38.8187 12.2496C34.5179 12.2442 30.1193 12.2362 24.5558 12.2344H21.7763C20.0423 12.2344 18.4906 12.2344 17.2502 12.2344" fill="white"/>
</mask>
<g mask="url(#mask0_5_4349)">
<path d="M32.74 -2.57353L-1.71692 23.4011L24.2604 57.8616L58.7173 31.887L32.74 -2.57353Z" fill="white"/>
</g>
<mask id="mask1_5_4349" style="mask-type:luminance" maskUnits="userSpaceOnUse" x="13" y="23" width="18" height="18">
<path d="M13.3854 23.8198C13.283 23.9222 13.2018 24.0437 13.1464 24.1774C13.091 24.3112 13.0624 24.4545 13.0624 24.5993C13.0624 24.7441 13.091 24.8874 13.1464 25.0212C13.2018 25.1549 13.283 25.2764 13.3854 25.3788L28.1868 40.1604V40.1515C28.1868 40.1515 28.9335 40.909 29.7619 40.1963C30.0428 39.9549 30.2026 39.4478 30.0311 38.9937C29.9217 38.7092 29.6533 38.5198 29.5734 38.4292C29.56 38.4148 29.5474 38.3996 29.533 38.3852L14.9443 23.8198C14.842 23.7175 14.7205 23.6362 14.5867 23.5808C14.453 23.5254 14.3096 23.4969 14.1649 23.4969C14.0201 23.4969 13.8767 23.5254 13.743 23.5808C13.6093 23.6362 13.4877 23.7175 13.3854 23.8198Z" fill="white"/>
</mask>
<g mask="url(#mask1_5_4349)">
<path d="M23.9945 15.2543L4.69519 29.8026L19.2759 49.1449L38.5752 34.5966L23.9945 15.2543Z" fill="white"/>
</g>
<mask id="mask2_5_4349" style="mask-type:luminance" maskUnits="userSpaceOnUse" x="12" y="29" width="10" height="10">
<path d="M12.5559 29.8033C12.3497 30.0104 12.234 30.2906 12.234 30.5828C12.234 30.8749 12.3497 31.1552 12.5559 31.3623L19.8255 38.6319V38.6122C19.8255 38.6122 20.4367 39.2763 21.2795 38.6876C21.4895 38.5234 21.6337 38.2893 21.686 38.0279C21.7444 37.3261 21.4616 37.1439 21.1206 36.8019L14.1202 29.8015C13.9132 29.5952 13.6329 29.4793 13.3407 29.4793C13.0485 29.4793 12.7682 29.5952 12.5612 29.8015" fill="white"/>
</mask>
<g mask="url(#mask2_5_4349)">
<path d="M18.2591 24.8553L7.42017 33.0261L15.6119 43.893L26.4509 35.7223L18.2591 24.8553Z" fill="white"/>
</g>
<mask id="mask3_5_4349" style="mask-type:luminance" maskUnits="userSpaceOnUse" x="29" y="26" width="3" height="4">
<path d="M29.6337 27.8925C29.6335 28.1118 29.6984 28.3262 29.8201 28.5086C29.9418 28.691 30.1149 28.8332 30.3175 28.9172C30.5201 29.0012 30.743 29.0233 30.9581 28.9805C31.1732 28.9378 31.3708 28.8322 31.5258 28.6771C31.6809 28.5221 31.7865 28.3245 31.8292 28.1094C31.872 27.8943 31.8499 27.6714 31.7659 27.4688C31.6819 27.2662 31.5397 27.0931 31.3573 26.9714C31.1749 26.8497 30.9605 26.7848 30.7412 26.785C30.4474 26.785 30.1657 26.9017 29.958 27.1094C29.7504 27.3171 29.6337 27.5988 29.6337 27.8925Z" fill="white"/>
</mask>
<g mask="url(#mask3_5_4349)">
<path d="M31.0192 25.8756L28.5364 27.7377L30.3985 30.2205L32.8813 28.3584L31.0192 25.8756Z" fill="white"/>
</g>
</svg>
